<svg class="icon" viewBox="0 0 1024 1024" xmlns="http://www.w3.org/2000/svg" width="128" height="128"><path d="M482.36 1021.724c-7.28 0-14.563-7.281-21.844-14.563-7.282-14.564 0-29.127 7.281-36.409l138.354-80.1c14.564-7.281 29.127 0 36.409 7.282 7.282 14.564 0 29.127-7.282 36.41l-138.354 80.099c0 7.281-7.281 7.281-14.563 7.281zm385.935-655.36v-123.79c0-14.563 14.564-29.127 29.127-29.127s29.127 14.564 29.127 29.127v123.79c0 14.564-14.563 29.128-29.127 29.128s-29.127-14.564-29.127-29.128zm-14.563 524.288c-14.564 0-21.846-7.281-29.128-14.563-7.281-7.282-21.845-21.845-36.408-21.845-7.282 0-29.128 14.563-36.41 21.845-7.281 7.282-21.845 14.563-29.126 14.563h-14.564l-50.972-29.127c-14.564-7.281-21.846-29.127-14.564-50.972v-14.564c0-7.281-7.282-21.845-14.564-29.127-7.281-7.282-14.563-14.563-29.127-14.563s-29.127-14.564-29.127-29.127c0 0-7.282-21.846-7.282-43.691s7.282-43.69 7.282-43.69c0-14.564 14.564-29.128 29.127-29.128 21.846 0 43.691-14.563 43.691-43.69v-14.564c-7.282-14.564 0-36.409 14.564-50.973l58.254-29.127h14.563c7.282 0 21.846 7.282 29.127 14.564 7.282 7.282 21.846 21.845 36.41 21.845s21.845-7.282 36.408-21.845c7.282-7.282 21.846-14.564 29.127-14.564h14.564l50.972 29.127c14.564 7.282 21.846 29.128 14.564 50.973v14.563c0 21.846 14.563 43.691 43.69 43.691 14.564 0 29.128 14.564 29.128 29.127 0 0 7.281 21.846 7.281 43.69s-7.281 43.692-7.281 43.692c0 21.845-14.564 29.127-29.127 29.127-7.282 0-21.846 7.281-29.128 14.563-7.281 7.282-14.563 14.564-14.563 29.127v14.564c7.282 14.563 0 36.409-14.564 50.972l-58.254 29.127h-14.563zm-65.536-87.38c14.563 0 36.408 7.28 50.972 21.844 7.282 0 7.282 7.282 14.564 7.282l29.127-14.563v-21.846c0-43.69 36.409-87.381 80.1-94.663v-43.69c-43.691-7.282-80.1-43.691-80.1-94.664v-21.845l-29.127-14.563s-7.282 7.281-14.564 7.281c-14.564 14.564-36.409 21.846-50.972 21.846-14.564 0-36.41-7.282-50.973-21.846-7.282 0-7.282-7.281-14.563-7.281l-36.41 14.563v21.845c0 43.691-36.408 87.382-80.099 94.664v43.69c43.69 7.282 80.1 43.69 80.1 94.663v21.846l29.127 14.563s7.282-7.282 14.563-7.282c21.846-14.563 43.691-21.845 58.255-21.845zm0-36.41c-50.973 0-87.382-36.409-87.382-87.381s36.41-87.381 87.382-87.381 87.38 36.408 87.38 87.38c0 43.692-36.408 87.382-87.38 87.382zm0-123.79c-7.282 0-14.564 0-21.846 7.282s-7.282 14.563-7.282 21.845c0 14.564 14.564 36.409 36.41 36.409 14.563 0 36.408-14.564 36.408-29.127s-21.845-36.409-43.69-36.409zM23.609 213.447l451.47 254.862v546.134L23.61 745.017v-531.57zM314.88 606.663h14.564c7.281 0 21.845-7.282 21.845-14.563 7.282-7.282 7.282-14.564 7.282-21.846s-7.282-14.563-14.564-14.563L147.4 439.182c-7.282-7.282-14.563-7.282-21.845-7.282-7.282 0-14.564 7.282-14.564 14.564-7.282 7.282-7.282 14.564-7.282 21.845 0 7.282 7.282 14.564 14.564 14.564l196.608 123.79zM23.609 213.447L438.67 2.276 911.986 228.01 475.079 475.59 23.61 213.447z"/></svg>
