<svg class="icon" viewBox="0 0 1024 1024" xmlns="http://www.w3.org/2000/svg" width="128" height="128"><path d="M372.073 651.81c9.67 9.554 25.4 9.554 34.953 0L651.81 407.142c9.67-9.553 9.67-25.398 0-34.952-9.67-9.554-25.399-9.554-34.952 0L372.073 616.858c-9.553 9.67-9.553 25.398 0 34.952z"/><path d="M992.83 206.049L817.951 31.169c-38.564-38.564-101.246-38.564-139.926 0L468.309 241.002c-38.564 38.565-38.564 101.246 0 139.927l34.953 34.953 34.952-34.953-34.952-34.953c-19.224-19.223-19.224-50.68 0-69.905L713.094 66.24c19.223-19.34 50.68-19.34 69.905 0l174.879 174.879c19.224 19.224 19.224 50.681 0 69.905L748.046 520.738c-19.224 19.224-50.681 19.224-69.905 0l-34.952-34.952-34.953 34.952 34.953 34.953c38.564 38.564 101.245 38.564 139.926 0l209.832-209.832c38.448-38.564 38.448-101.246-.117-139.81zM520.738 608.12l-34.952 34.952 34.952 34.953c19.224 19.223 19.224 50.68 0 69.905L310.906 957.878c-19.223 19.224-50.68 19.224-69.905 0L66.122 782.998c-19.224-19.34-19.224-50.68 0-69.904l209.832-209.832c19.224-19.224 50.681-19.224 69.905 0l34.952 34.952 34.953-34.952-34.953-34.953c-38.564-38.564-101.245-38.564-139.926 0L31.17 678.141c-38.565 38.564-38.565 101.246 0 139.81l174.879 174.88c38.564 38.564 101.246 38.564 139.81 0l209.832-209.832c38.564-38.565 38.564-101.246 0-139.927l-34.953-34.953z"/></svg>
