<svg class="icon" viewBox="0 0 1024 1024" xmlns="http://www.w3.org/2000/svg" width="300" height="300"><path d="M387.834 731.618c0-56.895 12.548-109.615 37.658-157.31-232.616 16.736-414.187 207.518-414.187 440.135h523.803c-91.205-62.757-147.274-166.522-147.274-282.825zm62.756-219.23h15.899c50.208-59.407 118.814-100.415 194.12-116.302 25.098-37.659 37.659-84.517 37.659-132.2 0-138.063-112.965-251.028-251.027-251.028S196.214 125.823 196.214 263.886c3.35 135.538 116.314 248.502 254.376 248.502zm523.803 222.58l-6.7-3.35-3.349-3.35s6.7-3.349 9.2-6.698c25.097-12.55 37.658-37.66 34.309-62.757-3.35-28.448-9.2-50.208-21.76-68.619-18.411-31.797-46.859-40.996-84.518-28.447-3.35 0-6.7 3.35-9.2 3.35v-6.7c9.2-25.098 3.35-53.557-15.898-75.306-6.699-6.699-18.41-18.41-37.659-25.098-15.898-6.699-31.797-9.199-43.508-9.199-40.997 0-56.895 34.31-62.757 46.858l-3.35-3.35s0-3.349-3.35-3.349c0-3.35-3.349-6.7-3.349-9.2-12.549-18.41-31.797-31.796-53.557-31.796h-8.362c-15.899 3.35-31.797 3.35-46.859 12.549-43.508 21.76-59.407 50.208-50.207 93.716v8.362c-3.35 0-6.7 0-9.2-3.35-28.447-9.199-53.557 0-71.956 21.76-9.2 12.55-18.41 28.448-21.76 50.209-12.55 43.508 0 75.305 40.996 93.716 0 0-3.35 3.35-6.699 3.35-25.098 9.2-37.659 31.797-40.996 59.407 0 34.31 9.199 66.106 34.309 87.855 15.898 15.898 34.31 21.76 59.407 18.41 3.35 0 6.7 0 9.2-3.35h3.349v3.35c-9.2 28.448-3.35 53.558 18.41 75.306 15.9 15.899 34.31 25.098 59.408 31.797 12.549 3.35 21.76 3.35 28.447 3.35 37.66 0 56.895-31.797 62.757-43.509 0-3.35 3.35-3.35 3.35-3.35l6.699 6.7c0 3.35 3.35 6.699 6.7 9.2 15.898 25.097 37.658 34.308 66.106 31.796 21.76-3.35 40.996-9.2 59.407-21.76 31.797-21.76 40.996-53.558 28.447-87.855h9.2c37.659 9.2 66.106-3.35 87.854-37.659 9.2-15.898 15.899-34.309 18.411-56.895.036-25.098-15.862-50.195-40.972-66.094zm-71.956 3.338c3.35 18.41 12.549 37.658 31.797 46.858 3.35 0 3.35 3.35 6.7 3.35h3.349c6.699 3.349 6.699 3.349 6.699 9.199 0 12.549-3.35 18.41-9.2 28.447-5.861 10.037-9.199 9.2-12.548 9.2h-9.2c-3.35 0-6.699 0-9.199-3.35h-3.35c-28.447-3.35-50.207 6.7-62.756 25.098-12.55 18.41-12.55 40.996-6.7 62.757 3.35 6.699 3.35 6.699-3.35 12.548-9.198 6.7-21.76 12.55-37.658 12.55l-3.35-3.35s0-3.35-3.35-6.7c0-3.35-3.349-3.35-3.349-3.35-15.898-28.447-40.996-34.308-56.895-34.308-12.549 0-37.659 3.35-56.895 34.309-6.7 9.2-9.2 12.549-9.2 12.549-3.349 0-6.698 0-12.548-3.35-12.549-3.35-25.098-9.2-34.31-18.41v-3.35c0-3.35 0-3.35 3.35-9.2 6.7-18.41 6.7-37.658-6.699-53.557-9.2-15.899-28.447-25.098-46.858-25.098h-9.2c-6.699 0-12.549 0-18.41 3.35h-9.2c-12.549-12.55-15.898-28.448-15.898-46.858 15.898-6.7 25.098-15.899 34.31-28.448 9.198-15.898 12.548-31.797 9.198-50.208s-15.898-34.31-34.309-43.508c-12.549-6.7-12.549-6.7-9.2-21.76 3.35-12.55 6.7-18.412 12.55-25.099l3.35-3.35h3.349c18.41 6.7 31.797 6.7 43.509 3.35 34.309-9.199 53.557-40.996 46.858-82.005-3.35-9.199 0-12.549 0-12.549s3.35-3.35 15.898-9.199c9.2-3.35 15.899-6.7 28.448-6.7l3.35 3.35c3.35 3.35 3.35 5.862 6.699 9.2 12.549 18.41 34.309 31.797 56.895 31.797s43.508-12.549 53.557-34.31c6.7-12.548 9.2-12.548 9.2-12.548 6.699 0 18.41 6.699 25.097 6.699 6.7 3.35 9.2 6.7 15.899 9.2 3.35 3.349 3.35 3.349 3.35 6.699-6.7 15.898-6.7 31.797-3.35 43.508 6.7 31.797 37.659 53.558 71.956 46.858 6.7 0 12.549-3.35 18.41-6.699 3.35 0 6.7 0 6.7-3.35 0 0 3.35 0 6.7 6.7 6.698 9.2 9.199 21.76 12.548 37.659l-6.7 15.898c-6.698 3.35-15.898 9.2-25.097 18.411-18.435 13.423-24.297 31.833-20.947 51.07zm-169.86-132.201c-68.618 0-125.513 56.895-125.513 125.513s56.895 125.514 125.513 125.514 125.514-56.895 125.514-125.514-56.07-125.513-125.514-125.513zm0 189.108c-34.31 0-62.757-28.448-62.757-62.757s28.448-62.757 62.757-62.757 62.757 28.448 62.757 62.757-27.61 62.757-62.757 62.757z" /></svg>
