<svg class="icon" viewBox="0 0 1024 1024" xmlns="http://www.w3.org/2000/svg" width="128" height="128"><path d="M730.453 163.271a9.102 9.102 0 0 1 9.103-9.102h273.066a9.102 9.102 0 0 1 9.102 9.102v54.613a9.102 9.102 0 0 1-9.102 9.103H739.556a9.102 9.102 0 0 1-9.103-9.103v-54.613z" fill="#707070"/><path d="M848.782 336.213a9.102 9.102 0 0 1-9.102-9.102V54.044a9.102 9.102 0 0 1 9.102-9.102h54.614a9.102 9.102 0 0 1 9.102 9.102v273.067a9.102 9.102 0 0 1-9.102 9.102h-54.614z" fill="#707070"/><path d="M75.093 226.987h573.44a9.102 9.102 0 0 0 9.103-9.103v-54.613a9.102 9.102 0 0 0-9.103-9.102H56.89c-30.163 0-54.613 24.45-54.613 54.613v691.77c0 30.162 24.45 54.612 54.613 54.612H967.11c30.163 0 54.613-24.45 54.613-54.613V418.133a9.102 9.102 0 0 0-9.102-9.102H958.01a9.102 9.102 0 0 0-9.102 9.102v464.214H75.093v-655.36z" fill="#707070"/><path d="M75.093 336.213h646.258a9.102 9.102 0 0 1 9.102 9.103v54.613a9.102 9.102 0 0 1-9.102 9.102H75.093v-72.818z" fill="#707070"/><path d="M293.547 882.347V372.622a9.102 9.102 0 0 1 9.102-9.102h54.613a9.102 9.102 0 0 1 9.102 9.102v509.725h-72.817z" /><path d="M317.44 605.867h651.947a9.102 9.102 0 0 1 9.102 9.102v54.613a9.102 9.102 0 0 1-9.102 9.102H317.44v-72.817z"/></svg>
