<svg class="icon" viewBox="0 0 1024 1024" xmlns="http://www.w3.org/2000/svg" width="200" height="200"><path d="M738.588 791.188h-454.69c-154.874 0-281.577-126.714-281.577-281.577v-18.466c0-154.875 126.714-281.578 281.577-281.578h454.69c154.875 0 281.578 126.715 281.578 281.578v18.466c.011 154.863-126.703 281.577-281.578 281.577zm208.874-281.532v-18.568c0-114.859-93.97-208.828-208.828-208.828H283.841c-114.858 0-208.827 93.969-208.827 208.828v18.568c0 114.859 93.969 208.828 208.827 208.828h454.804c114.848 0 208.817-93.97 208.817-208.828z"/><path d="M184.07000000000002 507.176a145.408 145.408 0 1 0 290.816 0 145.408 145.408 0 1 0-290.816 0z"/></svg>
