<svg class="icon" viewBox="0 0 1024 1024" xmlns="http://www.w3.org/2000/svg" width="128" height="128"><path d="M925.476 175.679L770.26 20.593C756.927 7.26 738.933-.249 720.032-.249H137.49c-30.163 0-54.63 24.467-54.63 54.63v918.345c0 30.163 24.467 54.63 54.63 54.63h754.198c30.163 0 54.63-24.467 54.63-54.63V225.907c-.13-18.77-7.509-36.894-20.842-50.228zM651.292 55.028v206.867c0 5.178-4.272 9.45-9.45 9.45h-291.4c-5.179 0-9.45-4.272-9.45-9.45V55.028h310.3zm87.64 917.05H290.376V594.075c0-5.049 4.143-9.191 9.191-9.191h430.305c5.048 0 9.191 4.142 9.191 9.19V972.08zm151.98 0h-96.703V594.075c0-35.6-28.868-64.468-64.468-64.468H299.437c-35.6 0-64.468 28.868-64.468 64.468v378.005h-96.702V55.157h147.448v206.868c0 35.729 28.997 64.856 64.856 64.856h291.4c35.73 0 64.857-28.998 64.857-64.856V55.028h13.463c4.143 0 8.156 1.683 11.133 4.66L886.64 214.903c2.978 2.978 4.66 6.862 4.66 11.133l-.388 746.043z" /><path d="M543.069 103.314h55.277v112.884h-55.277zm-216.576 575.94h285.704v55.277H326.493zm0 133.079h221.236v55.277H326.493z"/></svg>
